<?xml version="1.0" encoding="utf-8"?>
<!-- Generator: Adobe Illustrator 25.2.3, SVG Export Plug-In . SVG Version: 6.00 Build 0)  -->
<svg version="1.1" id="Layer_1" xmlns="http://www.w3.org/2000/svg" xmlns:xlink="http://www.w3.org/1999/xlink" x="0px" y="0px"
	 viewBox="0 0 835 665.1" style="enable-background:new 0 0 835 665.1;" xml:space="preserve">
<style type="text/css">
	.st0{fill:#FDBB11;}
	.st1{fill-rule:evenodd;clip-rule:evenodd;fill:#76BF47;}
	.st2{fill-rule:evenodd;clip-rule:evenodd;fill:#F48340;}
	.st3{fill-rule:evenodd;clip-rule:evenodd;fill:#8068AD;}
	.st4{fill-rule:evenodd;clip-rule:evenodd;fill:#EE4580;}
	.st5{fill-rule:evenodd;clip-rule:evenodd;fill:#C0BCC0;}
	.st6{fill-rule:evenodd;clip-rule:evenodd;fill:#458FCD;}
</style>
<g id="Layer_2_1_">
	<g id="Layer_3">
		<path class="st0" d="M398.8,451.9l171.7-32.7l13.4-3.1L411.6,15.3C407.6,6.1,398.7,0.1,388.7,0v33.7L398.8,451.9z"/>
		<path class="st1" d="M380.8,451.9l-173.9-32.7l-13.4-3.1L365.9,15.3c3.9-9.1,12.9-15.1,22.9-15.3v33.7L380.8,451.9z"/>
		<path class="st2" d="M399.1,470.5l-10.3,158.6l-0.8,14.5l90.2,20.5c21,4.8,41.9-8.4,46.7-29.4l56-205.2l3.6-13l-0.2-0.5l-14.8,3.4
			"/>
		<path class="st3" d="M379.8,469.2l9.1,159.9l0.9,14.5l-90.2,20.5c-21,4.8-41.9-8.4-46.7-29.4l-56-205.2l-3.6-13l0.2-0.5l14.8,3.4"
			/>
		<polygon class="st4" points="570.4,557.5 611.7,416 555.8,289.1 679,235.9 775.3,235.9 		"/>
		<path class="st5" d="M756.3,321l62.1,29.5c10.1,4.8,20.4-6.1,15.1-15.9l-54-99L756.3,321z"/>
		<path class="st6" d="M207.1,558.6l-41-144.8L221,289L22.9,179.6c-13.6-7.5-28.5,7.6-20.8,21.1L207.1,558.6z"/>
	</g>
</g>
</svg>
